<?xml version="1.0" encoding="UTF-8" standalone="no"?><!DOCTYPE svg PUBLIC "-//W3C//DTD SVG 1.1//EN" "http://www.w3.org/Graphics/SVG/1.1/DTD/svg11.dtd"><svg width="100%" height="100%" viewBox="0 0 115 94" version="1.1" xmlns="http://www.w3.org/2000/svg" xmlns:xlink="http://www.w3.org/1999/xlink" xml:space="preserve" xmlns:serif="http://www.serif.com/" style="fill-rule:evenodd;clip-rule:evenodd;stroke-linejoin:round;stroke-miterlimit:2;"><path d="M2.4,0l109.701,0l-0,86.833c-0,2.212 -1.796,4.007 -4.007,4.007l-101.687,0c-2.212,0 -4.007,-1.795 -4.007,-4.007l-0,-86.833Z" style="fill:#ff382e;"/><path d="M114.501,0l-0,86.833c-0,3.536 -2.871,6.407 -6.407,6.407l-101.687,0c-3.536,0 -6.407,-2.871 -6.407,-6.407l-0,-86.833l2.4,0l-0,86.833c-0,2.212 1.795,4.007 4.007,4.007l101.687,0c2.211,0 4.007,-1.795 4.007,-4.007l-0,-86.833l2.4,0Z"/><g><g><path d="M102.164,64.29c-1.079,-1.078 -2.646,-1.625 -4.659,-1.625c-0.399,0 -0.794,0.027 -1.183,0.081l0,-3.093c0,-0.625 -0.286,-1.216 -0.777,-1.604c-0.364,-0.287 -0.811,-0.439 -1.265,-0.439c-0.158,0 -0.318,0.018 -0.475,0.056l-12.933,3.094c-0.168,0.04 -0.327,0.101 -0.474,0.178l-0,-0.493c-0,-1.128 -0.915,-2.042 -2.043,-2.042l-4.579,-0c-1.128,-0 -2.042,0.914 -2.042,2.042l-0,2.457c-0.07,-0.007 -0.141,-0.011 -0.212,-0.011l-8.041,-0l0,-2.446c0,-1.128 -0.915,-2.042 -2.043,-2.042l-4.578,-0c-0.613,-0 -1.161,0.271 -1.535,0.697c-0.136,-0.028 -0.277,-0.043 -0.421,-0.043l-10.916,-0c-1.128,-0 -2.043,0.914 -2.043,2.042l0,14.525c0,1.128 0.915,2.043 2.043,2.043l57.757,-0c1.128,-0 2.043,-0.915 2.043,-2.043l-0,-6.721c-0,-1.982 -0.546,-3.534 -1.624,-4.613" style="fill-rule:nonzero;"/><path d="M43.988,61.099l10.916,0l-0,3.158l-6.676,-0l0,2.503l5.819,0l-0,3.203l-5.819,0l0,5.661l-4.24,0l-0,-14.525Z" style="fill:#fff;fill-rule:nonzero;"/><path d="M57.198,68.023l-1.556,0l0.361,-3.089l5.435,-0l0,10.69l-4.24,0l0,-7.601Z" style="fill:#fff;fill-rule:nonzero;"/><rect x="56.86" y="60.445" width="4.578" height="3.067" style="fill:#fff;"/><path d="M74.115,68.023l-1.557,0l0.361,-3.089l5.436,-0l-0,10.69l-4.24,0l-0,-7.601Z" style="fill:#fff;fill-rule:nonzero;"/><rect x="73.777" y="60.445" width="4.578" height="3.067" style="fill:#fff;"/><path d="M82.34,74.801c-0.661,-0.699 -0.992,-1.688 -0.992,-2.965l-0,-3.767l-1.399,-0l0,-3.135l1.399,-0l-0,-2.188l4.24,-1.015l0,3.203l2.458,-0l-0.157,3.135l-2.301,-0l0,3.451c0,0.451 0.109,0.77 0.327,0.958c0.218,0.188 0.567,0.282 1.048,0.282c0.437,-0 0.88,-0.075 1.331,-0.226l0,2.82c-0.797,0.33 -1.751,0.496 -2.864,0.496c-1.398,-0 -2.429,-0.35 -3.09,-1.049" style="fill:#fff;fill-rule:nonzero;"/><path d="M90.039,60.665l4.241,-1.012l-0,5.935c0.391,-0.256 0.871,-0.466 1.443,-0.632c0.571,-0.165 1.165,-0.248 1.782,-0.248c1.458,0 2.53,0.342 3.214,1.026c0.684,0.685 1.026,1.741 1.026,3.169l0,6.721l-4.263,0l0,-6.405c0,-0.496 -0.105,-0.849 -0.315,-1.06c-0.211,-0.21 -0.572,-0.316 -1.083,-0.316c-0.316,-0 -0.639,0.072 -0.97,0.214c-0.331,0.143 -0.609,0.327 -0.834,0.553l-0,7.014l-4.241,0l0,-14.959Z" style="fill:#fff;fill-rule:nonzero;"/><path d="M71.159,68.023l0.361,-3.089l-8.219,-0l0,10.69l4.24,0l0,-7.601l3.618,0Z" style="fill:#fff;fill-rule:nonzero;"/><path d="M38.161,60.746c-0.859,-1.008 -1.966,-1.768 -3.197,-2.212c-0.671,-1.938 -1.881,-3.676 -3.486,-4.981c-1.961,-1.593 -4.436,-2.471 -6.966,-2.471c-2.532,0 -5.006,0.878 -6.967,2.471c-1.605,1.305 -2.815,3.043 -3.486,4.981c-1.231,0.444 -2.338,1.204 -3.197,2.212c-1.162,1.363 -1.802,3.101 -1.802,4.895c-0,3.829 2.863,7 6.561,7.489c0.248,2.053 1.633,3.761 3.504,4.473l-0.091,0.611c-1.345,0.661 -2.273,2.046 -2.273,3.643l15.501,-0c0,-1.597 -0.927,-2.982 -2.272,-3.643l-0.092,-0.611c1.871,-0.712 3.256,-2.42 3.505,-4.473c3.697,-0.489 6.56,-3.66 6.56,-7.489c0,-1.794 -0.64,-3.532 -1.802,-4.895" style="fill-rule:nonzero;"/><path d="M24.512,78.014c-0.564,-0 -1.02,-0.689 -1.02,-1.538c-0,-0.849 0.456,-1.538 1.02,-1.538c0.563,0 1.019,0.689 1.019,1.538c0,0.849 -0.456,1.538 -1.019,1.538m6.93,-5.548l-2.055,-0c0,0.795 -0.644,1.44 -1.439,1.44l-0.628,-0l-0.217,-1.44l-5.183,-0l-0.216,1.44l-0.629,-0c-0.795,-0 -1.439,-0.645 -1.439,-1.44l-2.055,-0c0,1.929 1.565,3.494 3.494,3.494l0.32,-0l-0.576,3.843l-0.003,-0c-1.134,-0 -2.054,0.919 -2.054,2.054l11.499,-0c-0,-1.135 -0.919,-2.054 -2.054,-2.054l-0.003,-0l-0.576,-3.843l0.32,-0c1.929,-0 3.494,-1.565 3.494,-3.494" style="fill:#fff;fill-rule:nonzero;"/><path d="M34.346,67.636c-0,0.832 -0.675,1.507 -1.507,1.507l-1.39,0l0,-1.39c0,-0.832 0.675,-1.507 1.507,-1.507l1.39,0l-0,1.39Zm-4.951,-2.525l0,-1.39c0,-0.832 0.675,-1.507 1.507,-1.507l1.39,0l-0,1.39c-0,0.832 -0.675,1.507 -1.507,1.507l-1.39,-0Zm0,2.525c0,0.832 -0.674,1.507 -1.506,1.507l-1.39,0l-0,-1.39c-0,-0.832 0.674,-1.507 1.506,-1.507l1.39,0l0,1.39Zm3.956,-7.466c-0.9,-4.054 -4.514,-7.087 -8.839,-7.087c-4.326,0 -7.94,3.033 -8.84,7.087c-2.617,0.45 -4.611,2.725 -4.611,5.471c-0,3.068 2.488,5.556 5.557,5.556l15.787,0c3.069,0 5.557,-2.488 5.557,-5.556c0,-2.746 -1.994,-5.021 -4.611,-5.471" style="fill:#ffda00;fill-rule:nonzero;"/></g></g></svg>