<?xml version="1.0" encoding="UTF-8" standalone="no"?>
<!DOCTYPE svg PUBLIC "-//W3C//DTD SVG 1.1//EN" "http://www.w3.org/Graphics/SVG/1.1/DTD/svg11.dtd">
<svg width="100%" height="100%" viewBox="0 0 332 108" version="1.1" xmlns="http://www.w3.org/2000/svg" xmlns:xlink="http://www.w3.org/1999/xlink" xml:space="preserve" xmlns:serif="http://www.serif.com/" style="fill-rule:evenodd;clip-rule:evenodd;stroke-linejoin:round;stroke-miterlimit:2;">
    <g transform="matrix(1,0,0,1,-789.491,-2248.88)">
        <g transform="matrix(1.03005,0,0,1.03005,739.1,2218.05)">
            <g>
                <g>
                    <g transform="matrix(1.14957,0,0,1.14957,364.774,97.459)">
                        <path d="M0,-19.761C-3.185,-22.944 -7.81,-24.557 -13.75,-24.557C-14.926,-24.557 -16.092,-24.477 -17.239,-24.318L-17.239,-33.447C-17.239,-35.292 -18.084,-37.035 -19.532,-38.179C-20.607,-39.027 -21.926,-39.475 -23.267,-39.475C-23.734,-39.475 -24.204,-39.421 -24.667,-39.31L-62.834,-30.181C-63.33,-30.063 -63.799,-29.883 -64.234,-29.655L-64.234,-31.108C-64.234,-34.437 -66.933,-37.136 -70.263,-37.136L-83.774,-37.136C-87.103,-37.136 -89.802,-34.437 -89.802,-31.108L-89.802,-23.859C-90.008,-23.88 -90.216,-23.891 -90.428,-23.891L-114.156,-23.891L-114.156,-31.108C-114.156,-34.437 -116.855,-37.136 -120.185,-37.136L-133.696,-37.136C-135.503,-37.136 -137.12,-36.337 -138.225,-35.077C-138.626,-35.161 -139.042,-35.206 -139.468,-35.206L-171.682,-35.206C-175.011,-35.206 -177.71,-32.508 -177.71,-29.178L-177.71,13.686C-177.71,17.015 -175.011,19.714 -171.682,19.714L-1.236,19.714C2.093,19.714 4.792,17.015 4.792,13.686L4.792,-6.148C4.792,-11.998 3.18,-16.578 0,-19.761" style="fill-rule:nonzero;"/>
                    </g>
                    <g transform="matrix(1.14957,0,0,1.14957,167.415,113.192)">
                        <path d="M0,-42.864L32.214,-42.864L32.214,-33.546L12.513,-33.546L12.513,-26.158L29.685,-26.158L29.685,-16.706L12.513,-16.706L12.513,0L0,0L0,-42.864Z" style="fill:white;fill-rule:nonzero;"/>
                    </g>
                    <g transform="matrix(1.14957,0,0,1.14957,212.23,102.71)">
                        <path d="M0,-13.312L-4.593,-13.312L-3.528,-22.43L12.513,-22.43L12.513,9.118L0,9.118L0,-13.312Z" style="fill:white;fill-rule:nonzero;"/>
                    </g>
                    <g transform="matrix(1.14957,0,0,1.14957,-113.722,-575.475)">
                        <rect x="282.545" y="554.273" width="13.511" height="9.052" style="fill:white;"/>
                    </g>
                    <g transform="matrix(1.14957,0,0,1.14957,269.619,102.71)">
                        <path d="M0,-13.312L-4.593,-13.312L-3.528,-22.43L12.512,-22.43L12.512,9.118L0,9.118L0,-13.312Z" style="fill:white;fill-rule:nonzero;"/>
                    </g>
                    <g transform="matrix(1.14957,0,0,1.14957,-113.722,-575.475)">
                        <rect x="332.467" y="554.273" width="13.511" height="9.052" style="fill:white;"/>
                    </g>
                    <g transform="matrix(1.14957,0,0,1.14957,297.522,69.6177)">
                        <path d="M0,35.475C-1.952,33.412 -2.929,30.495 -2.929,26.724L-2.929,15.608L-7.055,15.608L-7.055,6.356L-2.929,6.356L-2.929,-0.1L9.585,-3.095L9.585,6.356L16.839,6.356L16.374,15.608L9.585,15.608L9.585,25.792C9.585,27.123 9.906,28.066 10.55,28.62C11.192,29.175 12.224,29.452 13.644,29.452C14.931,29.452 16.241,29.23 17.572,28.786L17.572,37.106C15.219,38.081 12.402,38.57 9.119,38.57C4.992,38.57 1.952,37.539 0,35.475" style="fill:white;fill-rule:nonzero;"/>
                    </g>
                    <g transform="matrix(1.14957,0,0,1.14957,323.642,109.758)">
                        <path d="M0,-41.158L12.513,-44.145L12.513,-26.631C13.667,-27.385 15.086,-28.006 16.773,-28.495C18.459,-28.983 20.212,-29.227 22.031,-29.227C26.334,-29.227 29.497,-28.217 31.516,-26.199C33.534,-24.179 34.544,-21.062 34.544,-16.847L34.544,2.987L21.965,2.987L21.965,-15.915C21.965,-17.379 21.653,-18.422 21.033,-19.044C20.411,-19.664 19.346,-19.976 17.838,-19.976C16.906,-19.976 15.952,-19.764 14.976,-19.343C13.999,-18.921 13.179,-18.378 12.513,-17.713L12.513,2.987L0,2.987L0,-41.158Z" style="fill:white;fill-rule:nonzero;"/>
                    </g>
                    <g transform="matrix(1.14957,0,0,1.14957,259.593,102.71)">
                        <path d="M0,-13.312L1.065,-22.43L-23.19,-22.43L-23.19,9.118L-10.678,9.118L-10.678,-13.312L0,-13.312Z" style="fill:white;fill-rule:nonzero;"/>
                    </g>
                    <g transform="matrix(1.14957,0,0,1.14957,147.647,101.552)">
                        <path d="M0,-33.782C-2.535,-36.755 -5.8,-38.999 -9.433,-40.308C-11.413,-46.029 -14.984,-51.158 -19.722,-55.008C-25.51,-59.71 -32.811,-62.3 -40.28,-62.3C-47.75,-62.3 -55.051,-59.71 -60.838,-55.008C-65.576,-51.158 -69.147,-46.029 -71.127,-40.308C-74.76,-38.999 -78.025,-36.755 -80.56,-33.782C-83.991,-29.76 -85.88,-24.63 -85.88,-19.337C-85.88,-8.037 -77.43,1.321 -66.518,2.766C-65.784,8.824 -61.698,13.863 -56.176,15.966L-56.446,17.769C-60.415,19.72 -63.153,23.805 -63.153,28.518L-17.407,28.518C-17.407,23.805 -20.145,19.72 -24.114,17.769L-24.384,15.966C-18.862,13.863 -14.776,8.823 -14.042,2.766C-3.13,1.321 5.319,-8.037 5.319,-19.337C5.319,-24.63 3.43,-29.76 0,-33.782" style="fill-rule:nonzero;"/>
                    </g>
                    <g transform="matrix(1.14957,0,0,1.14957,101.342,115.513)">
                        <path d="M0,5.032C-1.662,5.032 -3.009,3 -3.009,0.494C-3.009,-2.012 -1.662,-4.044 0,-4.044C1.662,-4.044 3.009,-2.012 3.009,0.494C3.009,3 1.662,5.032 0,5.032M20.451,-11.341L14.389,-11.341C14.389,-8.994 12.487,-7.091 10.14,-7.091L8.287,-7.091L7.649,-11.341L-7.649,-11.341L-8.286,-7.091L-10.14,-7.091C-12.487,-7.091 -14.389,-8.994 -14.389,-11.341L-20.451,-11.341C-20.451,-5.646 -15.835,-1.03 -10.14,-1.03L-9.196,-1.03L-10.897,10.312L-10.905,10.311C-14.253,10.311 -16.967,13.025 -16.967,16.373L16.967,16.373C16.967,13.025 14.254,10.311 10.906,10.311L10.898,10.312L9.196,-1.03L10.14,-1.03C15.835,-1.03 20.451,-5.646 20.451,-11.341" style="fill:white;fill-rule:nonzero;"/>
                    </g>
                    <g transform="matrix(1.14957,0,0,1.14957,134.704,48.8027)">
                        <path d="M0,32.439C0,34.894 -1.991,36.885 -4.446,36.885L-8.548,36.885L-8.548,32.783C-8.548,30.328 -6.557,28.337 -4.102,28.337L0,28.337L0,32.439ZM-14.609,24.986L-14.609,20.884C-14.609,18.429 -12.619,16.438 -10.163,16.438L-6.062,16.438L-6.062,20.54C-6.062,22.995 -8.052,24.986 -10.508,24.986L-14.609,24.986ZM-14.609,32.439C-14.609,34.894 -16.6,36.885 -19.055,36.885L-23.157,36.885L-23.157,32.783C-23.157,30.328 -21.166,28.337 -18.711,28.337L-14.609,28.337L-14.609,32.439ZM-2.936,10.406C-5.59,-1.559 -16.257,-10.508 -29.021,-10.508C-41.785,-10.508 -52.452,-1.559 -55.107,10.406C-62.831,11.733 -68.715,18.446 -68.715,26.549C-68.715,35.605 -61.373,42.947 -52.317,42.947L-5.726,42.947C3.331,42.947 10.672,35.605 10.672,26.549C10.672,18.446 4.789,11.733 -2.936,10.406" style="fill:rgb(255,218,0);fill-rule:nonzero;"/>
                    </g>
                </g>
            </g>
        </g>
    </g>
</svg>
