<?xml version="1.0" encoding="UTF-8" standalone="no"?><!DOCTYPE svg PUBLIC "-//W3C//DTD SVG 1.1//EN" "http://www.w3.org/Graphics/SVG/1.1/DTD/svg11.dtd"><svg width="100%" height="100%" viewBox="0 0 24 24" version="1.1" xmlns="http://www.w3.org/2000/svg" xmlns:xlink="http://www.w3.org/1999/xlink" xml:space="preserve" xmlns:serif="http://www.serif.com/" style="fill-rule:evenodd;clip-rule:evenodd;stroke-linejoin:round;stroke-miterlimit:2;"><path d="M21.006,13.954c-0.283,1.363 -2.44,2.839 -4.825,3.179c-4.882,0.625 -7.777,-0.34 -7.777,-0.34c0.171,0.737 -0.227,3.065 3.974,2.952c1.76,-0 3.293,-0.398 3.293,-0.398l0.113,1.532c-2.895,1.363 -6.074,0.852 -7.947,0.342c-3.803,-0.966 -4.485,-5.109 -4.598,-9.197l-0,-3.349c-0,-4.2 2.781,-5.449 2.781,-5.449c2.839,-1.363 10.218,-1.249 12.603,-0c-0,-0 2.781,1.249 2.781,5.449c-0,0 0.056,3.122 -0.398,5.279Zm-2.895,-4.995c0,-1.021 -0.397,-3.406 -2.952,-3.406c-2.27,-0 -2.837,2.101 -2.837,2.101c-0,-0 -0.625,-2.101 -2.839,-2.101c-2.668,-0 -2.952,2.385 -2.952,3.406l0,5.165l1.988,0l-0,-4.995c-0,-1.021 0.453,-1.532 1.304,-1.532c1.023,0 1.533,0.624 1.533,1.873l0,2.668l1.93,-0l0,-2.668c0,-1.249 0.512,-1.873 1.533,-1.873c0.852,0 1.306,0.511 1.306,1.532l-0,4.995l1.986,0l0,-5.165Z" style="fill:#ff382e;fill-rule:nonzero;"/></svg>