<?xml version="1.0" encoding="UTF-8" standalone="no"?>
<!DOCTYPE svg PUBLIC "-//W3C//DTD SVG 1.1//EN" "http://www.w3.org/Graphics/SVG/1.1/DTD/svg11.dtd">
<svg width="100%" height="100%" viewBox="0 0 960 58" version="1.1" xmlns="http://www.w3.org/2000/svg" xmlns:xlink="http://www.w3.org/1999/xlink" xml:space="preserve" xmlns:serif="http://www.serif.com/" style="fill-rule:evenodd;clip-rule:evenodd;stroke-linejoin:round;stroke-miterlimit:2;">
    <g transform="matrix(0.550735,0,0,0.550735,-56.0215,-763.378)">
        <g>
            <path d="M101.721,1492.58L101.721,1402.95C117.582,1393.41 136.151,1387.92 155.991,1387.92C188.429,1387.92 217.469,1402.59 236.834,1425.65C248.571,1418.1 262.537,1413.72 277.517,1413.72C307.759,1413.72 333.862,1431.57 345.852,1457.31C354.549,1453.19 364.272,1450.88 374.53,1450.88C388.822,1450.88 402.077,1455.36 412.965,1462.99C429.56,1419.14 471.963,1387.92 521.599,1387.92C554.728,1387.92 584.635,1401.83 605.797,1424.12C621.492,1411.18 641.599,1403.4 663.507,1403.4C691.692,1403.4 716.896,1416.27 733.56,1436.45C753.653,1407.15 787.369,1387.92 825.541,1387.92C864.389,1387.92 898.622,1407.84 918.577,1438.01C930.403,1430.01 944.66,1425.34 960,1425.34C985.137,1425.34 1007.37,1437.89 1020.75,1457.06C1029.83,1453.09 1039.86,1450.88 1050.4,1450.88C1056.46,1450.88 1062.36,1451.61 1068,1452.99C1083.88,1414.8 1121.57,1387.92 1165.48,1387.92C1197.91,1387.92 1226.95,1402.59 1246.32,1425.65C1258.06,1418.1 1272.02,1413.72 1287,1413.72C1317.25,1413.72 1343.35,1431.57 1355.34,1457.31C1364.04,1453.19 1373.76,1450.88 1384.02,1450.88C1398.31,1450.88 1411.56,1455.36 1422.45,1462.99C1439.05,1419.14 1481.45,1387.92 1531.09,1387.92C1564.21,1387.92 1594.12,1401.83 1615.28,1424.12C1630.98,1411.18 1651.09,1403.4 1672.99,1403.4C1701.18,1403.4 1726.38,1416.27 1743.05,1436.45C1763.14,1407.15 1796.86,1387.92 1835.03,1387.92C1838.34,1387.92 1841.61,1388.07 1844.85,1388.35L1844.85,1492.58L101.721,1492.58Z" style="fill:rgb(255,218,0);"/>
        </g>
    </g>
</svg>
