<?xml version="1.0" encoding="UTF-8" standalone="no"?><!DOCTYPE svg PUBLIC "-//W3C//DTD SVG 1.1//EN" "http://www.w3.org/Graphics/SVG/1.1/DTD/svg11.dtd"><svg width="100%" height="100%" viewBox="0 0 24 24" version="1.1" xmlns="http://www.w3.org/2000/svg" xmlns:xlink="http://www.w3.org/1999/xlink" xml:space="preserve" xmlns:serif="http://www.serif.com/" style="fill-rule:evenodd;clip-rule:evenodd;stroke-linejoin:round;stroke-miterlimit:2;"><path d="M21.582,6.186c-0.23,-0.86 -0.908,-1.538 -1.768,-1.768c-1.56,-0.418 -7.814,-0.418 -7.814,-0.418c0,0 -6.254,0 -7.814,0.418c-0.86,0.23 -1.538,0.908 -1.768,1.768c-0.418,1.56 -0.418,5.814 -0.418,5.814c0,0 0,4.254 0.418,5.814c0.23,0.86 0.908,1.538 1.768,1.768c1.56,0.418 7.814,0.418 7.814,0.418c0,0 6.254,0 7.814,-0.418c0.861,-0.23 1.538,-0.908 1.768,-1.768c0.418,-1.56 0.418,-5.814 0.418,-5.814c0,0 0,-4.254 -0.418,-5.814Zm-11.582,9.278l0,-6.928l6,3.464l-6,3.464Z" style="fill:#ff382e;fill-rule:nonzero;"/></svg>